# xmcd CD database file
#
# Track frame offsets:
#	150
#	18877
#	40591
#	60733
#	77373
#	99576
#	119422
#	136640
#	148535
#	168100
#	200985
#	215674
#	232174
#
# Disc length: 3322 seconds
#
# Revision: 1
# Processed by: cddbd v1.5.2PL0 Copyright (c) Steve Scherf et al.
# Submitted via: CDex 1.51
#
DISCID=ae0cf80d
DTITLE=Hi Tide Harris - Nice and Hi!
DYEAR=1900
DGENRE=Blues
TTITLE0=Voo Doo Gambler
TTITLE1=Sweet Sixteen
TTITLE2=The Right To Be Loved
TTITLE3=Wild About You Baby
TTITLE4=I Miss You So
TTITLE5=Pledging My Love
TTITLE6=You Don't Have To Go
TTITLE7=The Lady's Tatoo
TTITLE8=I'm On My Way To L.A.
TTITLE9=South Central Shuffle
TTITLE10=Baby Please Don't Go
TTITLE11=Home At Last
TTITLE12=Pleading For Love
EXTD=
EXTT0=
EXTT1=
EXTT2=
EXTT3=
EXTT4=
EXTT5=
EXTT6=
EXTT7=
EXTT8=
EXTT9=
EXTT10=
EXTT11=
EXTT12=
PLAYORDER=
